<svg width="20" height="20" viewBox="0 0 20 20" xmlns="http://www.w3.org/2000/svg" focusable="false"><path fill-rule="evenodd" clip-rule="evenodd" d="M3.25 5C3.25 4.0335 4.0335 3.25 5 3.25H5.5C5.91421 3.25 6.25 3.58579 6.25 4C6.25 4.41421 5.91421 4.75 5.5 4.75H5C4.86193 4.75 4.75 4.86193 4.75 5V5.5C4.75 5.91421 4.41421 6.25 4 6.25C3.58579 6.25 3.25 5.91421 3.25 5.5V5ZM3.25 15C3.25 15.9665 4.0335 16.75 5 16.75H5.5C5.91421 16.75 6.25 16.4142 6.25 16C6.25 15.5858 5.91421 15.25 5.5 15.25H5C4.86193 15.25 4.75 15.1381 4.75 15V14.5C4.75 14.0858 4.41421 13.75 4 13.75C3.58579 13.75 3.25 14.0858 3.25 14.5V15ZM15 3.25C15.9665 3.25 16.75 4.0335 16.75 5V5.5C16.75 5.91421 16.4142 6.25 16 6.25C15.5858 6.25 15.25 5.91421 15.25 5.5V5C15.25 4.86193 15.1381 4.75 15 4.75H14.5C14.0858 4.75 13.75 4.41421 13.75 4C13.75 3.58579 14.0858 3.25 14.5 3.25H15ZM4 8.25C4.41421 8.25 4.75 8.58579 4.75 9V11C4.75 11.4142 4.41421 11.75 4 11.75C3.58579 11.75 3.25 11.4142 3.25 11V9C3.25 8.58579 3.58579 8.25 4 8.25ZM11.75 4C11.75 4.41421 11.4142 4.75 11 4.75L9 4.75C8.58579 4.75 8.25 4.41421 8.25 4C8.25 3.58579 8.58579 3.25 9 3.25H11C11.4142 3.25 11.75 3.58579 11.75 4ZM10.2438 9.04278C9.97142 8.94665 9.66806 9.01546 9.46383 9.21969C9.2596 9.42392 9.19079 9.72728 9.28692 9.99964L11.4082 16.01C11.494 16.253 11.6984 16.4349 11.9496 16.4918C12.2008 16.5488 12.4637 16.4729 12.6458 16.2908L13.8832 15.0533L15.2975 16.4675C15.5904 16.7604 16.0652 16.7604 16.3581 16.4675L16.7117 16.114C17.0046 15.8211 17.0046 15.3462 16.7117 15.0533L15.2975 13.6391L16.5349 12.4017C16.717 12.2195 16.793 11.9566 16.736 11.7054C16.679 11.4542 16.4971 11.2498 16.2542 11.1641L10.2438 9.04278Z"></path></svg>
